<svg xmlns="http://www.w3.org/2000/svg" width="1200" height="450" viewBox="0 0 1200 450" role="img" aria-label="Ihya Nashirudin Abrar profile hero">
<defs>
  <linearGradient id="g" x1="0" y1="0" x2="1" y2="1"><stop offset="0" stop-color="#6366F1"/><stop offset="1" stop-color="#8B5CF6"/></linearGradient>
  <linearGradient id="soft" x1="0" y1="0" x2="1" y2="0"><stop offset="0" stop-color="#6366F1" stop-opacity=".28"/><stop offset="1" stop-color="#22D3EE" stop-opacity=".08"/></linearGradient>
  <filter id="blur"><feGaussianBlur stdDeviation="35"/></filter>
</defs>
<rect width="100%" height="100%" rx="28" fill="#070B14"/>

  <circle cx="1040" cy="55" r="170" fill="#6366F1" opacity=".16" filter="url(#blur)"/>
  <circle cx="1120" cy="270" r="120" fill="#22D3EE" opacity=".12" filter="url(#blur)"/>
  <rect x="30" y="30" width="1140" height="390" rx="26" fill="#0D1422" stroke="#22304A"/>
  <rect x="58" y="60" width="278" height="142" rx="18" fill="#111B2C" stroke="#22304A"/>
  <circle cx="84" cy="84" r="6" fill="#FB7185"/><circle cx="104" cy="84" r="6" fill="#FBBF24"/><circle cx="124" cy="84" r="6" fill="#34D399"/>
  <text x="82" y="120" fill="#22D3EE" font-family="ui-monospace,SFMono-Regular,Consolas,monospace" font-size="18">&gt; build</text>
  <text x="82" y="148" fill="#22D3EE" font-family="ui-monospace,SFMono-Regular,Consolas,monospace" font-size="18">&gt; learn</text>
  <text x="82" y="176" fill="#22D3EE" font-family="ui-monospace,SFMono-Regular,Consolas,monospace" font-size="18">&gt; experiment</text>

  <text x="382" y="100" fill="#9BA8C0" font-family="Inter,Segoe UI,Arial,sans-serif" font-size="18">Halo, saya</text>
  <text x="382" y="154" fill="#F8FAFC" font-family="Inter,Segoe UI,Arial,sans-serif" font-size="46" font-weight="800">Ihya&apos; Nashirudin <tspan fill="url(#g)">Abrar</tspan></text>
  <text x="382" y="194" fill="#9BA8C0" font-family="Inter,Segoe UI,Arial,sans-serif" font-size="19">Informatics Student  ·  Developer  ·  AI / Data / Web</text>
  <text x="382" y="244" fill="#F8FAFC" font-family="Inter,Segoe UI,Arial,sans-serif" font-size="17">Building useful apps and open-source projects with a research mindset.</text>

  <rect x="382" y="280" width="116" height="42" rx="21" fill="#111B2C" stroke="#22304A"/><text x="440" y="307" text-anchor="middle" fill="#F8FAFC" font-family="Inter,Segoe UI,Arial,sans-serif" font-size="14" font-weight="700">BUILD</text>
  <rect x="510" y="280" width="116" height="42" rx="21" fill="#111B2C" stroke="#22304A"/><text x="568" y="307" text-anchor="middle" fill="#F8FAFC" font-family="Inter,Segoe UI,Arial,sans-serif" font-size="14" font-weight="700">LEARN</text>
  <rect x="638" y="280" width="150" height="42" rx="21" fill="#111B2C" stroke="#22304A"/><text x="713" y="307" text-anchor="middle" fill="#F8FAFC" font-family="Inter,Segoe UI,Arial,sans-serif" font-size="14" font-weight="700">EXPERIMENT</text>

  <rect x="840" y="275" width="282" height="88" rx="18" fill="url(#soft)" stroke="#22304A"/>
  <text x="866" y="307" fill="#6366F1" font-family="Georgia,serif" font-size="32">“</text>
  <text x="898" y="310" fill="#F8FAFC" font-family="Inter,Segoe UI,Arial,sans-serif" font-size="15" font-weight="700">Build useful things,</text>
  <text x="898" y="334" fill="#9BA8C0" font-family="Inter,Segoe UI,Arial,sans-serif" font-size="14">not just impressive things.</text>
  <text x="898" y="352" fill="#9BA8C0" font-family="Inter,Segoe UI,Arial,sans-serif" font-size="11">— Ihya&apos; Nashirudin Abrar</text>

  <path d="M40 392 C200 330 320 436 500 380 C690 322 810 428 1000 366 C1080 340 1130 344 1170 330" fill="none" stroke="url(#g)" stroke-width="4" opacity=".7"/>
</svg>