<svg xmlns="http://www.w3.org/2000/svg" width="1200" height="450" viewBox="0 0 1200 450" role="img" aria-label="Pinned projects"><defs><linearGradient id="g" x1="0" y1="0" x2="1" y2="1"><stop offset="0" stop-color="#6366F1"/><stop offset="1" stop-color="#8B5CF6"/></linearGradient></defs><rect width="100%" height="100%" rx="24" fill="#070B14"/><rect x="30" y="30" width="1140" height="390" rx="24" fill="#0D1422" stroke="#22304A"/><rect x="30" y="30" width="1140" height="6" rx="3" fill="url(#g)"/><text x="60" y="82" fill="#F8FAFC" font-family="Inter,Segoe UI,Arial,sans-serif" font-size="27" font-weight="800">Pinned Projects</text><text x="60" y="110" fill="#9BA8C0" font-family="Inter,Segoe UI,Arial,sans-serif" font-size="13">Projects currently pinned on the public GitHub profile.</text><rect x="60" y="140" width="340" height="96" rx="18" fill="#111B2C" stroke="#22304A"/><rect x="78" y="158" width="44" height="44" rx="12" fill="#6366F1" opacity=".18"/><text x="100" y="186" text-anchor="middle" fill="#6366F1" font-family="ui-monospace,Consolas,monospace" font-size="11" font-weight="800">TY</text><text x="138" y="177" fill="#F8FAFC" font-family="Inter,Segoe UI,Arial,sans-serif" font-size="17" font-weight="800">MediCode</text><text x="138" y="201" fill="#9BA8C0" font-family="Inter,Segoe UI,Arial,sans-serif" font-size="12">TypeScript · Health / app</text><rect x="425" y="140" width="340" height="96" rx="18" fill="#111B2C" stroke="#22304A"/><rect x="443" y="158" width="44" height="44" rx="12" fill="#6366F1" opacity=".18"/><text x="465" y="186" text-anchor="middle" fill="#6366F1" font-family="ui-monospace,Consolas,monospace" font-size="11" font-weight="800">TY</text><text x="503" y="177" fill="#F8FAFC" font-family="Inter,Segoe UI,Arial,sans-serif" font-size="17" font-weight="800">catetin-app</text><text x="503" y="201" fill="#9BA8C0" font-family="Inter,Segoe UI,Arial,sans-serif" font-size="12">TypeScript · Application</text><rect x="790" y="140" width="340" height="96" rx="18" fill="#111B2C" stroke="#22304A"/><rect x="808" y="158" width="44" height="44" rx="12" fill="#6366F1" opacity=".18"/><text x="830" y="186" text-anchor="middle" fill="#6366F1" font-family="ui-monospace,Consolas,monospace" font-size="11" font-weight="800">TY</text><text x="868" y="177" fill="#F8FAFC" font-family="Inter,Segoe UI,Arial,sans-serif" font-size="17" font-weight="800">scannin-lah</text><text x="868" y="201" fill="#9BA8C0" font-family="Inter,Segoe UI,Arial,sans-serif" font-size="12">TypeScript · Scanner utility</text><rect x="60" y="258" width="340" height="96" rx="18" fill="#111B2C" stroke="#22304A"/><rect x="78" y="276" width="44" height="44" rx="12" fill="#22D3EE" opacity=".18"/><text x="100" y="304" text-anchor="middle" fill="#22D3EE" font-family="ui-monospace,Consolas,monospace" font-size="11" font-weight="800">PY</text><text x="138" y="295" fill="#F8FAFC" font-family="Inter,Segoe UI,Arial,sans-serif" font-size="17" font-weight="800">SuperPDF</text><text x="138" y="319" fill="#9BA8C0" font-family="Inter,Segoe UI,Arial,sans-serif" font-size="12">Python · PDF tooling</text><rect x="425" y="258" width="340" height="96" rx="18" fill="#111B2C" stroke="#22304A"/><rect x="443" y="276" width="44" height="44" rx="12" fill="#FBBF24" opacity=".18"/><text x="465" y="304" text-anchor="middle" fill="#FBBF24" font-family="ui-monospace,Consolas,monospace" font-size="11" font-weight="800">JA</text><text x="503" y="295" fill="#F8FAFC" font-family="Inter,Segoe UI,Arial,sans-serif" font-size="17" font-weight="800">Planer</text><text x="503" y="319" fill="#9BA8C0" font-family="Inter,Segoe UI,Arial,sans-serif" font-size="12">JavaScript · Productivity</text><rect x="790" y="258" width="340" height="96" rx="18" fill="#111B2C" stroke="#22304A"/><rect x="808" y="276" width="44" height="44" rx="12" fill="#6366F1" opacity=".18"/><text x="830" y="304" text-anchor="middle" fill="#6366F1" font-family="ui-monospace,Consolas,monospace" font-size="11" font-weight="800">TY</text><text x="868" y="295" fill="#F8FAFC" font-family="Inter,Segoe UI,Arial,sans-serif" font-size="17" font-weight="800">Gerai_BKMT</text><text x="868" y="319" fill="#9BA8C0" font-family="Inter,Segoe UI,Arial,sans-serif" font-size="12">TypeScript · Web product</text></svg>